<?xml version="1.0" encoding="iso-8859-1"?>
<!-- Uploaded to: SVG Repo, www.svgrepo.com, Generator: SVG Repo Mixer Tools -->
<svg height="800px" width="800px" version="1.1" id="Layer_1" xmlns="http://www.w3.org/2000/svg" xmlns:xlink="http://www.w3.org/1999/xlink" 
	 viewBox="0 0 512 512" xml:space="preserve">
<path style="fill:#FF8C78;" d="M234.32,138.168l-50.938-50.938c-3.108-3.108-8.148-3.108-11.255,0l-50.938,50.938
	c-1.493,1.492-2.331,3.517-2.331,5.628v101.877c0,4.396,3.564,7.959,7.959,7.959h33.959c4.396,0,7.959-3.564,7.959-7.959v-51.469
	h18.041v51.469c0,4.396,3.564,7.959,7.959,7.959h33.959c4.396,0,7.959-3.564,7.959-7.959V143.795
	C236.651,141.684,235.813,139.66,234.32,138.168z"/>
<path style="fill:#DF7A6E;" d="M121.188,138.168c-1.493,1.492-2.331,3.517-2.331,5.628v101.877c0,4.396,3.564,7.959,7.959,7.959
	h18.041V114.499L121.188,138.168z"/>
<path style="fill:#7B7979;" d="M387.875,391.589c-2.036,0-4.074-0.777-5.628-2.331l-82.775-82.775
	c-3.108-3.108-3.108-8.148,0-11.255c3.108-3.108,8.148-3.108,11.255,0l82.775,82.775
	C398.406,382.904,394.835,391.589,387.875,391.589z"/>
<path style="fill:#A7A6A6;" d="M502.225,454.951l-96.051-96.051c-3.108-3.108-8.148-3.108-11.255,0L358.9,394.919
	c-3.108,3.108-3.108,8.148,0,11.255l96.051,96.051c6.517,6.517,15.077,9.775,23.638,9.775c8.56,0,17.121-3.258,23.636-9.775
	C515.259,489.191,515.259,467.984,502.225,454.951z"/>
<path style="fill:#918F90;" d="M366.828,386.991l-7.927,7.927c-3.108,3.108-3.108,8.148,0,11.255l96.051,96.051
	c6.517,6.517,15.077,9.775,23.638,9.775c3.826,0,7.649-0.656,11.292-1.957L366.828,386.991z"/>
<path style="fill:#6DDAE1;" d="M177.754,0C79.74,0,0,79.74,0,177.754s79.74,177.754,177.754,177.754s177.754-79.74,177.754-177.754
	S275.768,0,177.754,0z M177.754,297.141c-65.83,0-119.387-53.556-119.387-119.387S111.923,58.367,177.754,58.367
	s119.387,53.556,119.387,119.387S243.584,297.141,177.754,297.141z"/>
<path style="fill:#4FC4D4;" d="M177.754,33.429c-79.582,0-144.325,64.744-144.325,144.325S98.172,322.08,177.754,322.08
	s144.326-64.744,144.326-144.326S257.336,33.429,177.754,33.429z M177.754,297.141c-65.83,0-119.387-53.556-119.387-119.387
	S111.923,58.367,177.754,58.367s119.387,53.556,119.387,119.387S243.584,297.141,177.754,297.141z"/>
</svg>