<?xml version="1.0" encoding="utf-8"?><!-- Uploaded to: SVG Repo, www.svgrepo.com, Generator: SVG Repo Mixer Tools -->
<svg width="800px" height="800px" viewBox="0 0 24 24" fill="none" xmlns="http://www.w3.org/2000/svg">
<path d="M10 21V15H12M15 3V21M15 5H19.4C19.9601 5 20.2401 5 20.454 5.10899C20.6422 5.20487 20.7951 5.35785 20.891 5.54601C21 5.75992 21 6.03995 21 6.6V7.4C21 7.96005 21 8.24008 20.891 8.45399C20.7951 8.64215 20.6422 8.79513 20.454 8.89101C20.2401 9 19.9601 9 19.4 9H15M5 10V16.2C5 17.8802 5 18.7202 5.32698 19.362C5.6146 19.9265 6.07354 20.3854 6.63803 20.673C7.27976 21 8.11984 21 9.8 21H12M3 12L12 3" stroke="#000000" stroke-width="2" stroke-linecap="round" stroke-linejoin="round"/>
</svg>